#!OML:ASF H:\LiuWeirdWalks\Patient Classification 1\Patient 1\Session 1\male.ASF
:FULLY-SPECIFIED
:DEGREES
539
root 3.49981 18.631 33.102 -0.330954 -0.769863 -10.6462
lowerback 12.7075 0.0635586 2.45102
upperback 1.04073 0.781814 5.46931
thorax -6.0911 0.390818 4.26994
lowerneck -31.194 2.66884 6.80838
upperneck 25.7283 2.3475 -5.5449
head 14.1311 0.863859 -2.90464
rclavicle 1.2424e-015 1.64991e-014
rhumerus -47.4668 10.8174 -76.3516
rradius 44.6808
rwrist -3.90177
rhand -18.1985 2.79267
rfingers 7.12502
rthumb 8.07873 -27.0329
lclavicle 1.2424e-015 1.64991e-014
lhumerus -37.0088 -8.90631 84.9193
lradius 45.1097
lwrist 0.518524
lhand -17.4372 -8.04657
lfingers 7.12502
lthumb 8.81342 21.7494
rfemur -23.6737 -23.2718 14.4243
rtibia 91.3501
rfoot -11.2388 -14.3496
rtoes -9.04455
lfemur -0.687479 -0.909122 -15.8572
ltibia 34.8748
lfoot 10.3844 -2.6768
ltoes -6.25036
540
root 3.5179 18.7688 33.2522 -0.867344 -0.469408 -11.8662
lowerback 12.7113 -0.0719943 4.03572
upperback 1.12729 0.836005 5.71186
thorax -5.98746 0.379035 3.61933
lowerneck -31.0056 2.48114 6.68142
upperneck 25.773 2.1406 -5.49863
head 14.0946 0.771683 -2.90725
rclavicle -8.10048e-015 -4.07509e-014
rhumerus -47.7196 10.2047 -76.2554
rradius 44.0264
rwrist -3.71188
rhand -17.8925 2.64737
rfingers 7.12502
rthumb 8.37408 -27.1666
lclavicle -8.10048e-015 -4.07509e-014
lhumerus -37.3974 -8.41685 84.764
lradius 44.6142
lwrist 0.668467
lhand -17.2498 -7.91222
lfingers 7.12502
lthumb 8.9943 21.876
rfemur -22.4013 -22.8529 15.8103
rtibia 90.4083
rfoot -10.5791 -14.4368
rtoes -9.0884
lfemur -1.0072 -1.32508 -14.3713
ltibia 36.0996
lfoot 13.3009 -3.78929
ltoes -6.33798
541
root 3.53728 18.8955 33.396 -1.46327 -0.104208 -13.4512
lowerback 12.8478 -0.186728 6.20098
upperback 1.17885 1.01656 5.96764
thorax -5.98567 0.415729 2.64307
lowerneck -30.7743 2.11343 6.33852
upperneck 25.7899 1.72744 -5.28977
head 14.0178 0.593174 -2.84773
rclavicle -1.8313e-014 -6.54002e-014
rhumerus -48.1229 9.22547 -76.0695
rradius 43.4247
rwrist -3.50082
rhand -17.4802 2.5015
rfingers 7.12502
rthumb 8.77192 -27.2962
lclavicle -1.8313e-014 -6.54002e-014
lhumerus -37.7564 -8.34034 84.6867
lradius 44.1327
lwrist 0.909529
lhand -17.0744 -7.75403
lfingers 7.12502
lthumb 9.16353 22.0269
rfemur -21.0261 -22.4239 17.6435
rtibia 89.3577
rfoot -9.88408 -14.578
rtoes -9.13351
lfemur -1.5637 -1.63869 -12.446
ltibia 37.7027
lfoot 15.133 -5.09842
ltoes -6.76753
542
root 3.55737 19.0072 33.5331 -2.11846 0.278723 -15.3394
lowerback 13.1047 -0.277767 8.85415
upperback 1.21466 1.32393 6.22717
thorax -6.04339 0.501084 1.39158
lowerneck -30.5977 1.60312 5.8161
upperneck 25.8034 1.14515 -4.9426
head 13.9383 0.343222 -2.73558
rclavicle -3.05631e-015 3.83654e-014
rhumerus -48.6315 7.95505 -75.809
rradius 42.8776
rwrist -3.37397
rhand -17.0424 2.38997
rfingers 7.12502
rthumb 9.19446 -27.3896
lclavicle -3.05631e-015 3.83654e-014
lhumerus -38.045 -8.65157 84.6817
lradius 43.6621
lwrist 1.19079
lhand -16.9036 -7.59129
lfingers 7.12502
lthumb 9.3284 22.1823
rfemur -19.5996 -21.9936 19.8484
rtibia 88.2554
rfoot -9.18264 -14.7688
rtoes -9.21907
lfemur -2.29816 -1.822 -10.1566
ltibia 39.5801
lfoot 15.8434 -6.42838
ltoes -7.13649
543
root 3.57637 19.1008 33.6642 -2.79613 0.644307 -17.2635
lowerback 13.4242 -0.402896 11.4695
upperback 1.26482 1.60804 6.52295
thorax -6.10123 0.575832 0.223274
lowerneck -30.5027 1.12944 5.30317
upperneck 25.8085 0.610365 -4.61392
head 13.8808 0.110593 -2.62298
rclavicle 9.7156e-015 -2.62396e-014
rhumerus -49.0951 6.78825 -75.5337
rradius 42.3937
rwrist -3.37025
rhand -16.6027 2.29631
rfingers 7.12502
rthumb 9.6187 -27.4641
lclavicle 9.7156e-015 -2.62396e-014
lhumerus -38.2911 -8.93776 84.6835
lradius 43.2384
lwrist 1.49593
lhand -16.7476 -7.42949
lfingers 7.12502
lthumb 9.4789 22.3373
rfemur -18.2059 -21.5878 22.1124
rtibia 87.1892
rfoot -8.50092 -14.9632
rtoes -9.27022
lfemur -3.17157 -1.85467 -7.81438
ltibia 41.5874
lfoot 15.5746 -7.55138
ltoes -7.42033
544
root 3.59194 19.1789 33.7926 -3.43203 0.994918 -18.8486
lowerback 13.7328 -0.407492 13.8708
upperback 1.29707 2.02827 6.66499
thorax -6.13592 0.720034 -1.00042
lowerneck -30.5355 0.490509 4.5683
upperneck 25.8725 -0.116665 -4.11586
head 13.8677 -0.202426 -2.4459
rclavicle 1.02623e-014 -3.97569e-014
rhumerus -49.6633 5.30905 -75.1758
rradius 41.9979
rwrist -3.52601
rhand -16.2157 2.23758
rfingers 7.12502
rthumb 9.99206 -27.5052
lclavicle 1.02623e-014 -3.97569e-014
lhumerus -38.429 -9.66661 84.7859
lradius 42.8355
lwrist 1.81016
lhand -16.598 -7.28558
lfingers 7.12502
lthumb 9.6232 22.4746
rfemur -16.9241 -21.2217 24.0125
rtibia 86.2326
rfoot -7.88496 -15.1158
rtoes -9.33204
lfemur -4.15382 -1.76255 -5.8594
ltibia 43.5353
lfoot 14.6177 -8.15552
ltoes -7.61365
545
root 3.60566 19.2434 33.9207 -4.00982 1.3134 -19.9988
lowerback 13.9634 -0.505456 15.3798
upperback 1.3947 2.18212 6.88709
thorax -6.09865 0.765197 -1.59747
lowerneck -30.6051 0.170658 4.17155
upperneck 25.8733 -0.45262 -3.91644
head 13.8638 -0.358268 -2.36715
rclavicle -1.17034e-014 1.68967e-014
rhumerus -49.9738 4.56538 -74.95
rradius 41.6466
rwrist -3.92345
rhand -15.9099 2.18966
rfingers 7.12502
rthumb 10.2871 -27.5388
lclavicle -1.17034e-014 1.68967e-014
lhumerus -38.6003 -9.71489 84.7852
lradius 42.5116
lwrist 2.01885
lhand -16.4583 -7.17943
lfingers 7.12502
lthumb 9.75805 22.5745
rfemur -15.7372 -20.8678 25.4266
rtibia 85.4087
rfoot -7.36974 -15.2159
rtoes -9.39509
lfemur -5.16508 -1.54335 -4.41859
ltibia 45.2422
lfoot 13.2615 -8.14104
ltoes -7.84888
